HIERARCHY
ROOT Pelvis
{
	OFFSET 0.000000 0.941512 0.000000
	CHANNELS 6 Xposition Yposition Zposition Zrotation Yrotation Xrotation 
	JOINT Pelvis_L_Hip
	{
		OFFSET 0.000000 0.000000 0.000000
		CHANNELS 3 Zrotation Yrotation Xrotation
		JOINT L_Hip
		{
			OFFSET 0.062321 -0.080322 -0.016990
			CHANNELS 3 Zrotation Yrotation Xrotation
			JOINT L_Knee
			{
				OFFSET 0.093051 -0.381305 -0.029784
				CHANNELS 3 Zrotation Yrotation Xrotation
				JOINT L_Ankle
				{
					OFFSET -0.010371 -0.431000 -0.033614
					CHANNELS 3 Zrotation Yrotation Xrotation
					End Site #name: L_Foot
					{
						OFFSET 0.069299 -0.038670 0.119418
					}
				}
			}
		}
	}
	JOINT Pelvis_R_Hip
	{
		OFFSET 0.000000 0.000000 0.000000
		CHANNELS 3 Zrotation Yrotation Xrotation
		JOINT R_Hip
		{
			OFFSET -0.055334 -0.094904 -0.002373
			CHANNELS 3 Zrotation Yrotation Xrotation
			JOINT R_Knee
			{
				OFFSET -0.064207 -0.384370 -0.019592
				CHANNELS 3 Zrotation Yrotation Xrotation
				JOINT R_Ankle
				{
					OFFSET 0.025418 -0.419734 -0.065953
					CHANNELS 3 Zrotation Yrotation Xrotation
					End Site #name: R_Foot
					{
						OFFSET -0.057233 -0.039888 0.132134
					}
				}
			}
		}
	}
	JOINT Pelvis_Spine1
	{
		OFFSET 0.000000 0.000000 0.000000
		CHANNELS 3 Zrotation Yrotation Xrotation
		JOINT Spine1
		{
			OFFSET -0.005562 0.124093 -0.043360
			CHANNELS 3 Zrotation Yrotation Xrotation
			JOINT Spine2
			{
				OFFSET 0.012244 0.139499 0.029894
				CHANNELS 3 Zrotation Yrotation Xrotation
				JOINT Spine3
				{
					OFFSET -0.002556 0.056561 0.009225
					CHANNELS 3 Zrotation Yrotation Xrotation
					JOINT Spine3_Neck
					{
						OFFSET 0.000000 0.000000 0.000000
						CHANNELS 3 Zrotation Yrotation Xrotation
						JOINT Neck
						{
							OFFSET -0.005205 0.217920 -0.024551
							CHANNELS 3 Zrotation Yrotation Xrotation
							End Site #name: Head
							{
								OFFSET 0.002365 0.091850 0.046637
							}
						}
					}
					JOINT Spine3_L_Collar
					{
						OFFSET 0.000000 0.000000 0.000000
						CHANNELS 3 Zrotation Yrotation Xrotation
						JOINT L_Collar
						{
							OFFSET 0.072225 0.116603 -0.009480
							CHANNELS 3 Zrotation Yrotation Xrotation
							JOINT L_Shoulder
							{
								OFFSET 0.115937 -0.058643 -0.021018
								CHANNELS 3 Zrotation Yrotation Xrotation
								JOINT L_Elbow
								{
									OFFSET 0.021994 -0.254722 -0.024492
									CHANNELS 3 Zrotation Yrotation Xrotation
									End Site #name: L_Wrist
									{
										OFFSET 0.048810 -0.240214 0.103329
									}
								}
							}
						}
					}
					JOINT Spine3_R_Collar
					{
						OFFSET 0.000000 0.000000 0.000000
						CHANNELS 3 Zrotation Yrotation Xrotation
						JOINT R_Collar
						{
							OFFSET -0.073372 0.120704 -0.024611
							CHANNELS 3 Zrotation Yrotation Xrotation
							JOINT R_Shoulder
							{
								OFFSET -0.108089 -0.054969 -0.020504
								CHANNELS 3 Zrotation Yrotation Xrotation
								JOINT R_Elbow
								{
									OFFSET -0.033684 -0.260739 0.009889
									CHANNELS 3 Zrotation Yrotation Xrotation
									End Site #name: R_Wrist
									{
										OFFSET -0.067980 -0.232763 0.118463
									}
								}
							}
						}
					}
				}
			}
		}
	}
}
MOTION
Frames: 7
Frame Time: 0.041667
-0.007250 0.925724 0.186247 -3.208303 2.773587 -10.744510 0.000000 0.000000 0.000000 5.266195 0.707078 5.430621 1.667958 -0.708349 13.275707 2.537607 -1.020622 -4.713008 0.000000 0.000000 0.000000 -2.015217 -1.406184 9.603026 1.653006 -0.321728 -1.269947 1.004489 4.624716 -0.800463 0.000000 0.000000 0.000000 1.153319 -1.874319 15.158631 -7.453225 1.146958 -0.652873 6.497347 10.580508 -3.484884 0.000000 0.000000 0.000000 -0.146431 -0.696875 10.080548 0.000000 0.000000 0.000000 9.265437 -0.290227 2.225278 -11.037530 1.149142 1.675148 2.468471 0.861542 -1.058081 0.000000 0.000000 0.000000 -55.572690 20.269156 -18.168742 -35.793645 -4.326979 -14.842427 -29.325438 -13.718159 -12.795520 
-0.006100 0.925950 0.185888 -3.318945 2.320480 -10.755481 0.000000 0.000000 0.000000 5.309672 0.738228 5.587942 1.584673 -0.686880 13.261246 2.546370 -0.751478 -4.614847 0.000000 0.000000 0.000000 -1.952834 -1.383963 9.451850 1.593284 -0.308494 -1.187553 1.175893 5.039567 -0.681916 0.000000 0.000000 0.000000 1.411906 -1.937395 15.088805 -7.585417 1.153623 -0.776775 6.851638 10.312670 -3.450218 0.000000 0.000000 0.000000 -0.440664 -0.522064 10.461201 0.000000 0.000000 0.000000 9.139722 -0.229820 2.194823 -11.100339 1.179653 1.762783 2.358502 0.937223 -0.385610 0.000000 0.000000 0.000000 -56.820104 19.805776 -17.436705 -39.331277 -3.836526 -9.667172 -18.576007 -5.480438 -27.219567 
-0.004713 0.925848 0.185870 -3.524424 1.747242 -10.835298 0.000000 0.000000 0.000000 5.489707 0.776373 5.854754 1.414052 -0.649436 13.288668 2.754197 -0.318069 -4.773235 0.000000 0.000000 0.000000 -1.822941 -1.393653 9.462859 1.514829 -0.298914 -1.248517 1.383993 5.684999 -0.628123 0.000000 0.000000 0.000000 2.256761 -2.209562 15.139190 -8.321187 1.209521 -1.265193 7.042266 9.928239 -3.297722 0.000000 0.000000 0.000000 -0.544087 -0.457668 10.876252 0.000000 0.000000 0.000000 9.080230 -0.587941 1.915336 -10.804094 1.234607 2.143498 1.700252 0.703294 -0.127771 0.000000 0.000000 0.000000 -59.043412 20.174468 -18.088852 -45.676874 -3.416424 -5.384740 -4.341371 10.972343 -38.652793 
-0.003870 0.925768 0.185547 -3.511021 1.135219 -11.196265 0.000000 0.000000 0.000000 5.412586 0.903397 6.400153 1.374803 -0.639641 13.378078 2.884426 -0.019472 -4.871253 0.000000 0.000000 0.000000 -1.916136 -1.410292 9.694305 1.411691 -0.280153 -1.190488 1.577029 6.389668 -0.642285 0.000000 0.000000 0.000000 2.814259 -2.400202 15.359550 -9.093817 1.322427 -1.306890 6.671736 9.579741 -3.307233 0.000000 0.000000 0.000000 -0.437196 -0.469843 10.575266 0.000000 0.000000 0.000000 9.295761 -1.108217 1.607920 -10.569183 1.184740 1.938308 1.355002 0.518200 -0.321606 0.000000 0.000000 0.000000 -60.287674 20.860961 -19.144918 -45.836290 -3.687225 -6.367243 4.080403 21.685028 -41.191838 
-0.003715 0.925532 0.184321 -3.600219 0.621954 -11.383117 0.000000 0.000000 0.000000 5.536325 0.923885 6.534430 1.196807 -0.612006 13.668490 3.055514 0.434831 -4.957658 0.000000 0.000000 0.000000 -1.881507 -1.381765 9.525022 1.463845 -0.270944 -0.843623 1.684527 6.775581 -0.645214 0.000000 0.000000 0.000000 2.523742 -2.251575 15.123647 -9.025123 1.445893 -0.255615 6.549400 9.563477 -3.791484 0.000000 0.000000 0.000000 -0.422736 -0.405801 9.797714 0.000000 0.000000 0.000000 8.818327 -1.548561 1.193024 -10.593213 1.025115 1.092371 1.672647 0.578036 -0.724795 0.000000 0.000000 0.000000 -58.307260 21.543727 -19.676935 -42.193889 -3.521858 -7.022034 3.007192 21.213426 -42.642828 
-0.003599 0.925283 0.181967 -3.926872 0.197519 -11.332402 0.000000 0.000000 0.000000 5.870955 0.858144 6.376860 1.104306 -0.596135 13.836253 3.213695 0.835953 -5.045307 0.000000 0.000000 0.000000 -1.501677 -1.350334 9.067328 1.430865 -0.252547 -0.569632 1.779183 6.986794 -0.572269 0.000000 0.000000 0.000000 2.181956 -2.124840 15.128912 -8.579761 1.447592 0.339901 7.018040 9.883391 -4.296600 0.000000 0.000000 0.000000 -0.985391 -0.020645 9.139391 0.000000 0.000000 0.000000 8.526436 -1.615012 1.075248 -11.685548 0.851219 -0.241977 1.976016 0.631724 -1.140210 0.000000 0.000000 0.000000 -56.965249 21.852461 -19.816246 -40.768622 -3.456212 -7.332428 0.794047 18.332232 -42.238190 
-0.002454 0.925416 0.179907 -4.154509 -0.038016 -11.002582 0.000000 0.000000 0.000000 5.938700 0.785133 6.038092 1.154080 -0.596667 13.690765 3.326734 1.232886 -5.051583 0.000000 0.000000 0.000000 -1.250380 -1.303320 8.601997 1.337047 -0.247015 -0.755802 1.945155 7.090107 -0.290054 0.000000 0.000000 0.000000 2.299843 -2.127844 14.851502 -8.367344 1.412582 0.345209 7.209962 10.029335 -4.275927 0.000000 0.000000 0.000000 -1.185672 0.130404 8.640043 0.000000 0.000000 0.000000 8.888607 -1.391516 1.299369 -12.884211 0.665867 -1.606021 1.299119 0.125913 -2.208663 0.000000 0.000000 0.000000 -57.207005 21.808072 -19.781354 -41.219080 -3.592077 -7.734030 -0.474264 15.418836 -39.572548 
